<svg width="1024" height="1365" viewBox="0 0 1024 1365" fill="none" xmlns="http://www.w3.org/2000/svg">
  <defs>
    <linearGradient id="frameGradient" x1="0" y1="0" x2="0" y2="1">
      <stop offset="0%" stop-color="#E9F0FF" />
      <stop offset="100%" stop-color="#D3E2FF" />
    </linearGradient>
    <linearGradient id="bgGradient" x1="0" y1="0" x2="0" y2="1">
      <stop offset="0%" stop-color="#F7FAFF" />
      <stop offset="100%" stop-color="#EEF5FF" />
    </linearGradient>
    <radialGradient id="spotlight" cx="0.5" cy="0.3" r="0.8">
      <stop offset="0%" stop-color="#FFFFFF" stop-opacity="0.9" />
      <stop offset="60%" stop-color="#F6F7FB" stop-opacity="0.4" />
      <stop offset="100%" stop-color="#E4EAF8" stop-opacity="0" />
    </radialGradient>
    <linearGradient id="hairGradient" x1="0" y1="0" x2="1" y2="1">
      <stop offset="0%" stop-color="#2B1E1A" />
      <stop offset="100%" stop-color="#1A0F0C" />
    </linearGradient>
    <linearGradient id="skinGradient" x1="0" y1="0.2" x2="0" y2="1">
      <stop offset="0%" stop-color="#F9D6BF" />
      <stop offset="100%" stop-color="#E7A884" />
    </linearGradient>
    <linearGradient id="jacketGradient" x1="0" y1="0" x2="1" y2="1">
      <stop offset="0%" stop-color="#1F222C" />
      <stop offset="100%" stop-color="#10131B" />
    </linearGradient>
    <linearGradient id="topGradient" x1="0" y1="0" x2="0" y2="1">
      <stop offset="0%" stop-color="#B89C89" />
      <stop offset="100%" stop-color="#9A7766" />
    </linearGradient>
  </defs>
  <rect width="1024" height="1365" rx="64" fill="url(#bgGradient)" />
  <rect x="40" y="76" width="944" height="1213" rx="472" stroke="url(#frameGradient)" stroke-width="20" fill="none" />
  <ellipse cx="512" cy="540" rx="420" ry="420" fill="url(#spotlight)" />
  <ellipse cx="512" cy="1104" rx="320" ry="110" fill="#DDE6FF" opacity="0.55" />
  <path d="M512 320C452 320 402 356 372 416C348 462 340 520 344 576C349 645 360 710 388 762C410 803 418 852 418 903V1044H610V903C610 852 618 803 640 762C668 710 679 645 684 576C688 520 680 462 656 416C626 356 576 320 516 320H512Z" fill="url(#hairGradient)" />
  <path d="M512 372C470 372 432 398 408 440C391 468 384 504 387 540C391 591 397 642 420 684C439 718 472 744 512 744C552 744 585 718 604 684C627 642 633 591 637 540C640 504 633 468 616 440C592 398 554 372 512 372Z" fill="url(#skinGradient)" />
  <path d="M422 620C410 620 400 631 400 643C400 654 409 664 420 664H604C615 664 624 654 624 643C624 631 614 620 602 620H422Z" fill="#E09A7C" opacity="0.75" />
  <path d="M384 540C371 540 360 551 360 564C360 577 371 588 384 588H410C423 588 434 577 434 564C434 551 423 540 410 540H384Z" fill="#3C2A27" opacity="0.9" />
  <path d="M638 540C625 540 614 551 614 564C614 577 625 588 638 588H664C677 588 688 577 688 564C688 551 677 540 664 540H638Z" fill="#3C2A27" opacity="0.9" />
  <path d="M512 760C452 760 396 792 364 843C344 876 332 915 328 956C326 976 341 994 360 994H664C683 994 698 976 696 956C692 915 680 876 660 843C628 792 572 760 512 760Z" fill="url(#jacketGradient)" />
  <path d="M512 748C488 748 460 762 436 786C420 802 410 824 406 847C404 860 414 872 428 872H596C610 872 620 860 618 847C614 824 604 802 588 786C564 762 536 748 512 748Z" fill="url(#topGradient)" />
  <path d="M512 864C470 864 438 892 438 927V1044H586V927C586 892 554 864 512 864Z" fill="url(#jacketGradient)" />
  <path d="M360 404C324 420 296 452 280 492C268 520 260 552 258 584C256 604 270 620 290 620C310 620 326 604 328 584C331 548 340 514 356 484C370 456 392 432 420 418C436 410 440 390 430 374C420 358 400 352 382 360L360 404Z" fill="#241610" opacity="0.35" />
  <path d="M664 404C700 420 728 452 744 492C756 520 764 552 766 584C768 604 754 620 734 620C714 620 698 604 696 584C693 548 684 514 668 484C654 456 632 432 604 418C588 410 584 390 594 374C604 358 624 352 642 360L664 404Z" fill="#241610" opacity="0.35" />
  <circle cx="512" cy="260" r="140" fill="#F4F7FF" opacity="0.6" />
  <circle cx="512" cy="260" r="210" stroke="#BFD4FF" stroke-width="4" stroke-dasharray="18 36" opacity="0.35" />
  <circle cx="512" cy="260" r="276" stroke="#A2C2FF" stroke-width="3" stroke-opacity="0.4" />
  <rect x="274" y="1108" width="476" height="116" rx="58" fill="#E4ECFF" opacity="0.8" />
  <rect x="314" y="1140" width="396" height="52" rx="26" fill="#D2DEFF" opacity="0.6" />
</svg>

